<?xml version="1.0" encoding="utf-8"?>
<!-- Generator: Adobe Illustrator 16.0.0, SVG Export Plug-In . SVG Version: 6.00 Build 0)  -->
<!DOCTYPE svg PUBLIC "-//W3C//DTD SVG 1.1//EN" "http://www.w3.org/Graphics/SVG/1.1/DTD/svg11.dtd">
<svg version="1.1" id="Layer_1" xmlns="http://www.w3.org/2000/svg" xmlns:xlink="http://www.w3.org/1999/xlink" x="0px" y="0px"
	 width="276.756px" height="110.607px" viewBox="0 0 276.756 110.607" enable-background="new 0 0 276.756 110.607"
	 xml:space="preserve">
<path fill="#fff" d="M180.284,13.49c-0.227,0.371-0.705,0.484-1.08,0.263c-7.408-4.384-15.877-6.699-24.543-6.699
	c-7.936,0-15.775,1.96-22.726,5.677c-0.384,0.205-0.858,0.071-1.07-0.31l-2.651-4.768c-0.217-0.391-0.075-0.89,0.318-1.101
	C136.521,2.263,145.536,0,154.661,0c9.961,0,19.695,2.669,28.211,7.727c0.383,0.228,0.504,0.732,0.27,1.113L180.284,13.49z"/>
<path fill="#00BFEC" d="M201.504,41.448c-1.807-6.133-4.764-11.767-8.799-16.769c-0.273-0.339-0.23-0.832,0.105-1.11l3.287-2.74
	c0.344-0.286,0.861-0.238,1.143,0.109c4.557,5.635,7.891,11.989,9.922,18.911c0.127,0.429-0.129,0.881-0.561,1l-4.125,1.145
	C202.057,42.11,201.629,41.866,201.504,41.448z"/>
<path fill="#fff" d="M189.858,96.902l-3.525-4.163c-0.281-0.332-0.238-0.824,0.09-1.111
	c10.291-9.005,16.262-21.877,16.482-35.538c0.008-0.436,0.355-0.786,0.791-0.786h5.455c0.447,0,0.814,0.368,0.809,0.815
	c-0.23,15.719-7.1,30.53-18.957,40.873C190.667,97.286,190.147,97.243,189.858,96.902z"/>
<path fill="#fff" d="M154.661,110.607c-12.559,0-24.802-4.304-34.574-12.138c-0.349-0.279-0.398-0.796-0.113-1.141l3.477-4.207
	c0.277-0.335,0.768-0.381,1.107-0.109c8.514,6.804,19.171,10.541,30.103,10.541c7.564,0,14.787-1.694,21.486-5.035
	c0.391-0.194,0.859-0.047,1.061,0.34l2.514,4.845c0.207,0.396,0.051,0.891-0.35,1.091
	C171.756,108.599,163.231,110.607,154.661,110.607z"/>
<path fill="#00BFEC" d="M109.627,84.934c-0.373,0.246-0.882,0.142-1.122-0.235c-5.604-8.778-8.56-18.924-8.56-29.395
	c0-14.686,5.709-28.417,16.094-38.757c0.316-0.315,0.835-0.307,1.146,0.014l2.977,3.077c0.303,0.313,0.293,0.808-0.016,1.116
	c-9.242,9.225-14.322,21.463-14.322,34.55c0,9.327,2.627,18.363,7.604,26.184c0.234,0.367,0.136,0.851-0.228,1.091L109.627,84.934z"
	/>
<path fill="#fff" d="M154.661,91.31c-19.853,0-36.005-16.152-36.005-36.006s16.152-36.006,36.005-36.006
	c19.855,0,36.008,16.152,36.008,36.006S174.516,91.31,154.661,91.31z M154.661,26.352c-15.963,0-28.952,12.988-28.952,28.952
	c0,15.964,12.989,28.953,28.952,28.953c15.965,0,28.953-12.988,28.953-28.953C183.614,39.34,170.625,26.352,154.661,26.352z"/>
<path fill="#fff" d="M47.472,80.656l-7.87-16.606c-0.18-0.379-0.562-0.62-0.98-0.62h-23.58c-0.424,0-0.809,0.247-0.985,0.633
	L6.454,80.644c-0.177,0.385-0.562,0.632-0.986,0.632H1.086c-0.797,0-1.321-0.83-0.979-1.551l23.652-49.706
	c0.18-0.378,0.561-0.618,0.979-0.618h4.864c0.422,0,0.805,0.243,0.983,0.625l23.253,49.706c0.337,0.72-0.188,1.544-0.982,1.544
	h-4.404C48.033,81.276,47.651,81.035,47.472,80.656z M26.112,38.931l-7.985,16.909c-0.34,0.719,0.185,1.548,0.98,1.548h15.799
	c0.792,0,1.316-0.821,0.984-1.54l-7.813-16.908C27.691,38.103,26.505,38.098,26.112,38.931z"/>
<path fill="#fff" d="M72.854,80.192V30.417c0-0.599,0.485-1.085,1.085-1.085h3.932c0.599,0,1.085,0.486,1.085,1.085v49.775
	c0,0.599-0.486,1.084-1.085,1.084h-3.932C73.34,81.276,72.854,80.791,72.854,80.192z"/>
<path fill="#fff" d="M270.26,80.869l-31.51-39.4c-0.641-0.801-1.932-0.348-1.932,0.678v38.046c0,0.599-0.486,1.084-1.086,1.084
	h-3.932c-0.598,0-1.084-0.485-1.084-1.084V30.485c0-0.599,0.486-1.084,1.084-1.084h4.492c0.332,0,0.645,0.152,0.85,0.412
	l31.508,39.914c0.637,0.808,1.936,0.356,1.936-0.672v-38.57c0-0.599,0.486-1.084,1.084-1.084h4.002c0.6,0,1.084,0.485,1.084,1.084
	v49.707c0,0.599-0.484,1.084-1.084,1.084h-4.564C270.778,81.276,270.467,81.126,270.26,80.869z"/>
<g>
</g>
<g>
</g>
<g>
</g>
<g>
</g>
<g>
</g>
<g>
</g>
<g>
</g>
<g>
</g>
<g>
</g>
<g>
</g>
<g>
</g>
<g>
</g>
<g>
</g>
<g>
</g>
<g>
</g>
</svg>
